<?xml version="1.0" encoding="UTF-8" standalone="no"?>
<svg
   width="72px"
   height="114px"
   viewBox="0 0 72 114"
   style="background-color: #ffffff00"
   version="1.1"
   id="svg11"
   sodipodi:docname="Example_3.svg"
   inkscape:export-filename="Example_3.png"
   inkscape:export-xdpi="300"
   inkscape:export-ydpi="300"
   inkscape:version="1.3.2 (091e20e, 2023-11-25)"
   xmlns:inkscape="http://www.inkscape.org/namespaces/inkscape"
   xmlns:sodipodi="http://sodipodi.sourceforge.net/DTD/sodipodi-0.dtd"
   xmlns="http://www.w3.org/2000/svg"
   xmlns:svg="http://www.w3.org/2000/svg">
  <defs
     id="defs11" />
  <sodipodi:namedview
     id="namedview11"
     pagecolor="#ffffff"
     bordercolor="#000000"
     borderopacity="0.25"
     inkscape:showpageshadow="2"
     inkscape:pageopacity="0.0"
     inkscape:pagecheckerboard="0"
     inkscape:deskcolor="#d1d1d1"
     inkscape:zoom="9.1315789"
     inkscape:cx="36.028818"
     inkscape:cy="57"
     inkscape:window-width="1392"
     inkscape:window-height="1212"
     inkscape:window-x="2240"
     inkscape:window-y="25"
     inkscape:window-maximized="0"
     inkscape:current-layer="svg11" />
  <path
     stroke="none"
     fill="#000000"
     transform="matrix(0.05 0 0 0.05 -68 -170)"
     d="M 1919.99,4414.34 L 1929.8,4420 L 1929.8,4431.33 L 1420.01,4725.66 L 1400,4714.11 L 1919.99,4414.34 Z "
     id="path1" />
  <path
     stroke="none"
     fill="#000000"
     transform="matrix(0.05 0 0 0.05 -68 -170)"
     d="M 1924.8,4494.48 L 1934.8,4511.8 L 1487.2,4770.23 L 1477.2,4752.91 L 1924.8,4494.48 Z "
     id="path2" />
  <path
     stroke="none"
     fill="#000000"
     transform="matrix(0.05 0 0 0.05 -68 -170)"
     d="M 1400,4714.11 L 1420.01,4725.66 L 1420.01,5314.34 L 1400,5325.89 L 1400,4714.11 Z "
     id="path3" />
  <path
     stroke="none"
     fill="#000000"
     transform="matrix(0.05 0 0 0.05 -68 -170)"
     d="M 1400,5325.89 L 1420.01,5314.34 L 1929.8,5608.67 L 1929.8,5631.77 L 1400,5325.89 Z "
     id="path4" />
  <path
     stroke="none"
     fill="#000000"
     transform="matrix(0.05 0 0 0.05 -68 -170)"
     d="M 1477.2,5287.09 L 1487.2,5269.77 L 1934.8,5528.2 L 1924.8,5545.52 L 1477.2,5287.09 Z "
     id="path5" />
  <path
     stroke="none"
     fill="#000000"
     transform="matrix(0.05 0 0 0.05 -68 -170)"
     d="M 1929.8,5631.77 L 1929.8,5608.67 L 2439.59,5314.34 L 2459.6,5325.89 L 1929.8,5631.77 Z "
     id="path6" />
  <path
     stroke="none"
     fill="#000000"
     transform="matrix(0.05 0 0 0.05 -68 -170)"
     d="M 2459.6,5325.89 L 2439.59,5314.34 L 2439.59,4725.66 L 2459.6,4714.11 L 2459.6,5325.89 Z "
     id="path7" />
  <path
     stroke="none"
     fill="#000000"
     transform="matrix(0.05 0 0 0.05 -68 -170)"
     d="M 2387.4,5278.43 L 2367.4,5278.43 L 2367.4,4761.57 L 2387.4,4761.57 L 2387.4,5278.43 Z "
     id="path8" />
  <path
     stroke="none"
     fill="#000000"
     transform="matrix(0.05 0 0 0.05 -68 -170)"
     d="M 2459.6,4714.11 L 2439.59,4725.66 L 1929.8,4431.33 L 1929.8,4420 L 1939.61,4414.34 L 2459.6,4714.11 Z "
     id="path9" />
  <path
     stroke="none"
     fill="#000000"
     transform="matrix(0.05 0 0 0.05 -68 -170)"
     d="M 1939.61,4414.34 L 1929.8,4420 L 1919.99,4414.34 L 1919.6,3814.06 L 1939.61,3825.6 L 1939.61,4414.34 Z "
     id="path10" />
  <text
     x="0"
     y="0"
     stroke="none"
     fill="#000000"
     transform="matrix(0.05 0 0 0.05 50.8591 9.58643)"
     font-style="normal"
     font-weight="normal"
     font-size="200px"
     font-family="Helvetica"
     id="text10">
NH</text>
  <text
     x="0"
     y="0"
     stroke="none"
     fill="#000000"
     transform="matrix(0.05 0 0 0.05 65.3025 11.8862)"
     font-style="normal"
     font-weight="normal"
     font-size="150px"
     font-family="Helvetica"
     id="text11">
2</text>
  <path
     stroke="none"
     fill="#000000"
     transform="matrix(0.05 0 0 0.05 -68 -170)"
     d="M 1939.61,3825.6 L 1919.6,3814.06 L 2335.41,3574.27 L 2345.41,3591.59 L 1939.61,3825.6 Z "
     id="path11" />
</svg>
