<?xml version="1.0" encoding="UTF-8" standalone="no"?>
<svg
   width="268px"
   height="155px"
   viewBox="0 0 268 155"
   style="background-color: #ffffff00"
   version="1.1"
   id="svg57"
   sodipodi:docname="Example_1.svg"
   inkscape:export-filename="Example_1.png"
   inkscape:export-xdpi="300"
   inkscape:export-ydpi="300"
   inkscape:version="1.3.2 (091e20e, 2023-11-25)"
   xmlns:inkscape="http://www.inkscape.org/namespaces/inkscape"
   xmlns:sodipodi="http://sodipodi.sourceforge.net/DTD/sodipodi-0.dtd"
   xmlns="http://www.w3.org/2000/svg"
   xmlns:svg="http://www.w3.org/2000/svg">
  <defs
     id="defs57" />
  <sodipodi:namedview
     id="namedview57"
     pagecolor="#ffffff"
     bordercolor="#000000"
     borderopacity="0.25"
     inkscape:showpageshadow="2"
     inkscape:pageopacity="0.0"
     inkscape:pagecheckerboard="0"
     inkscape:deskcolor="#d1d1d1"
     inkscape:zoom="1.9999513"
     inkscape:cx="125.00305"
     inkscape:cy="22.750554"
     inkscape:window-width="1392"
     inkscape:window-height="1212"
     inkscape:window-x="2629"
     inkscape:window-y="76"
     inkscape:window-maximized="0"
     inkscape:current-layer="svg57" />
  <path
     stroke="none"
     fill="#000000"
     transform="matrix(0.05 0 0 0.05 -59 -133)"
     d="M 1919.99,4414.34 L 1929.8,4420 L 1929.8,4431.33 L 1420.01,4725.66 L 1400,4714.11 L 1919.99,4414.34 Z "
     id="path1" />
  <path
     stroke="none"
     fill="#000000"
     transform="matrix(0.05 0 0 0.05 -59 -133)"
     d="M 1924.8,4494.48 L 1934.8,4511.8 L 1487.2,4770.23 L 1477.2,4752.91 L 1924.8,4494.48 Z "
     id="path2" />
  <path
     stroke="none"
     fill="#000000"
     transform="matrix(0.05 0 0 0.05 -59 -133)"
     d="M 1400,4714.11 L 1420.01,4725.66 L 1420.01,5314.34 L 1400,5325.89 L 1400,4714.11 Z "
     id="path3" />
  <path
     stroke="none"
     fill="#000000"
     transform="matrix(0.05 0 0 0.05 -59 -133)"
     d="M 1400,5325.89 L 1420.01,5314.34 L 1929.8,5608.67 L 1929.8,5631.77 L 1400,5325.89 Z "
     id="path4" />
  <path
     stroke="none"
     fill="#000000"
     transform="matrix(0.05 0 0 0.05 -59 -133)"
     d="M 1477.2,5287.09 L 1487.2,5269.77 L 1934.8,5528.2 L 1924.8,5545.52 L 1477.2,5287.09 Z "
     id="path5" />
  <path
     stroke="none"
     fill="#000000"
     transform="matrix(0.05 0 0 0.05 -59 -133)"
     d="M 1929.8,5631.77 L 1929.8,5608.67 L 2439.59,5314.34 L 2459.6,5325.89 L 1929.8,5631.77 Z "
     id="path6" />
  <path
     stroke="none"
     fill="#000000"
     transform="matrix(0.05 0 0 0.05 -59 -133)"
     d="M 2459.6,5325.89 L 2439.59,5314.34 L 2439.59,4725.66 L 2459.6,4714.11 L 2459.6,5325.89 Z "
     id="path7" />
  <path
     stroke="none"
     fill="#000000"
     transform="matrix(0.05 0 0 0.05 -59 -133)"
     d="M 2387.4,5278.43 L 2367.4,5278.43 L 2367.4,4761.57 L 2387.4,4761.57 L 2387.4,5278.43 Z "
     id="path8" />
  <path
     stroke="none"
     fill="#000000"
     transform="matrix(0.05 0 0 0.05 -59 -133)"
     d="M 2459.6,4714.11 L 2439.59,4725.66 L 1929.8,4431.33 L 1929.8,4420 L 1939.61,4414.34 L 2459.6,4714.11 Z "
     id="path9" />
  <path
     stroke="none"
     fill="#000000"
     transform="matrix(0.05 0 0 0.05 -59 -133)"
     d="M 1939.61,4414.34 L 1929.8,4420 L 1919.99,4414.34 L 1919.6,3814.06 L 1939.61,3825.6 L 1939.61,4414.34 Z "
     id="path10" />
  <text
     x="0"
     y="0"
     stroke="none"
     fill="#000000"
     transform="matrix(0.05 0 0 0.05 59.8591 46.5864)"
     font-style="normal"
     font-weight="normal"
     font-size="200px"
     font-family="Helvetica"
     id="text10">
N</text>
  <path
     stroke="none"
     fill="#000000"
     transform="matrix(0.05 0 0 0.05 -59 -133)"
     d="M 1939.61,3825.6 L 1919.6,3814.06 L 2335.41,3574.27 L 2345.41,3591.59 L 1939.61,3825.6 Z "
     id="path11" />
  <path
     stroke="none"
     fill="#000000"
     transform="matrix(0.05 0 0 0.05 -59 -133)"
     d="M 2006.8,3870.23 L 1996.8,3852.91 L 2371.41,3636.62 L 2381.41,3653.94 L 2006.8,3870.23 Z "
     id="path12" />
  <text
     x="0"
     y="0"
     stroke="none"
     fill="#000000"
     transform="matrix(0.05 0 0 0.05 59.8591 16.5864)"
     font-style="normal"
     font-weight="normal"
     font-size="200px"
     font-family="Helvetica"
     id="text12">
Cu(I)</text>
  <path
     stroke="none"
     fill="#000000"
     transform="matrix(0.05 0 0 0.05 -59 -133)"
     d="M 2459.4,3407.27 L 2439.4,3407.27 L 2439.4,3333.28 L 2459.4,3333.28 L 2459.4,3407.27 Z "
     id="path13" />
  <path
     stroke="none"
     fill="#000000"
     transform="matrix(0.05 0 0 0.05 -59 -133)"
     d="M 2459.4,3259.29 L 2439.4,3259.29 L 2439.4,3185.3 L 2459.4,3185.3 L 2459.4,3259.29 Z "
     id="path14" />
  <path
     stroke="none"
     fill="#000000"
     transform="matrix(0.05 0 0 0.05 -59 -133)"
     d="M 2459.4,3111.31 L 2439.4,3111.31 L 2439.4,3037.32 L 2459.4,3037.32 L 2459.4,3111.31 Z "
     id="path15" />
  <path
     stroke="#000000"
     stroke-width="20"
     fill="none"
     transform="matrix(0.05 0 0 0.05 -59 -133)"
     d="M 3005.96,2740 L 3220,2740 "
     id="path16" />
  <path
     stroke="#000000"
     stroke-width="20"
     fill="none"
     transform="matrix(0.05 0 0 0.05 -59 -133)"
     d="M 3220,2740 L 3220,5700 "
     id="path17" />
  <path
     stroke="#000000"
     stroke-width="20"
     fill="none"
     transform="matrix(0.05 0 0 0.05 -59 -133)"
     d="M 3220,5700 L 3005.96,5700 "
     id="path18" />
  <path
     stroke="#000000"
     stroke-width="20"
     fill="none"
     transform="matrix(0.05 0 0 0.05 -59 -133)"
     d="M 1454.04,5700 L 1240,5700 "
     id="path19" />
  <path
     stroke="#000000"
     stroke-width="20"
     fill="none"
     transform="matrix(0.05 0 0 0.05 -59 -133)"
     d="M 1240,5700 L 1240,2740 "
     id="path20" />
  <path
     stroke="#000000"
     stroke-width="20"
     fill="none"
     transform="matrix(0.05 0 0 0.05 -59 -133)"
     d="M 1240,2740 L 1454.04,2740 "
     id="path21" />
  <text
     x="0"
     y="0"
     stroke="none"
     fill="#000000"
     transform="matrix(0.05 0 0 0.05 105 9)"
     font-style="normal"
     font-weight="normal"
     font-size="240px"
     font-family="Helvetica"
     id="text21">
+</text>
  <text
     x="0"
     y="0"
     stroke="none"
     fill="#000000"
     transform="matrix(0.05 0 0 0.05 85.8392 61.5864)"
     font-style="normal"
     font-weight="normal"
     font-size="200px"
     font-family="Helvetica"
     id="text22">
H</text>
  <path
     stroke="none"
     fill="#000000"
     transform="matrix(0.05 0 0 0.05 -59 -133)"
     d="M 2552.66,3591.17 L 2562.67,3573.85 L 2864.75,3748.26 L 2854.75,3765.58 L 2552.66,3591.17 Z "
     id="path22" />
  <path
     stroke="none"
     fill="#000000"
     transform="matrix(0.05 0 0 0.05 -59 -133)"
     d="M 4233.4,5103.4 L 4233.4,5083.4 L 4833.4,5083.4 L 4833.4,5103.4 L 4233.4,5103.4 Z "
     id="path23" />
  <path
     stroke="none"
     fill="#000000"
     transform="matrix(0.05 0 0 0.05 -59 -133)"
     d="M 5053.4,5103.4 L 5053.4,5083.4 L 5653.4,5083.4 L 5653.4,5103.4 L 5053.4,5103.4 Z "
     id="path24" />
  <path
     stroke="none"
     fill="#000000"
     transform="matrix(0.05 0 0 0.05 -59 -133)"
     d="M 5893.4,5103.4 L 5893.4,5083.4 L 6493.4,5083.4 L 6493.4,5103.4 L 5893.4,5103.4 Z "
     id="path25" />
  <path
     stroke="none"
     fill="#000000"
     transform="matrix(0.05 0 0 0.05 -59 -133)"
     d="M 4653.4,4083.4 L 4653.4,4063.4 L 5253.4,4063.4 L 5253.4,4083.4 L 4653.4,4083.4 Z "
     id="path26" />
  <path
     stroke="none"
     fill="#000000"
     transform="matrix(0.05 0 0 0.05 -59 -133)"
     d="M 5473.4,4083.4 L 5473.4,4063.4 L 6073.4,4063.4 L 6073.4,4083.4 L 5473.4,4083.4 Z "
     id="path27" />
  <path
     stroke="none"
     fill="#000000"
     transform="matrix(0.05 0 0 0.05 -59 -133)"
     d="M 4558.4,5269.4 L 4558.4,4773.4 L 4578.4,4773.4 L 4578.4,5269.4 Z "
     id="path28" />
  <path
     stroke="none"
     fill="#000000"
     transform="matrix(0.05 0 0 0.05 -59 -133)"
     d="M 4518.4,4917.4 L 4518.4,5413.4 L 4498.4,5413.4 L 4498.4,4917.4 Z "
     id="path29" />
  <path
     stroke="none"
     fill="#000000"
     transform="matrix(0.05 0 0 0.05 -59 -133)"
     d="M 4558.4,5443.4 C 4558.4,5443.4 4558.4,5268.4 4558.4,5268.4 C 4590.71,5268.4 4619.4,5243.4 4619.4,5243.4 C 4619.4,5243.4 4558.4,5443.4 4558.4,5443.4 C 4558.4,5443.4 4558.4,5443.4 4558.4,5443.4 "
     id="path30" />
  <path
     stroke="#000000"
     stroke-width="1"
     fill="none"
     transform="matrix(0.05 0 0 0.05 -59 -133)"
     d="M 4558.4,5443.4 C 4558.4,5443.4 4558.4,5268.4 4558.4,5268.4 C 4590.71,5268.4 4619.4,5243.4 4619.4,5243.4 C 4619.4,5243.4 4558.4,5443.4 4558.4,5443.4 C 4558.4,5443.4 4558.4,5443.4 4558.4,5443.4 "
     id="path31" />
  <path
     stroke="none"
     fill="#000000"
     transform="matrix(0.05 0 0 0.05 -59 -133)"
     d="M 4518.4,4743.4 C 4518.4,4743.4 4457.4,4943.4 4457.4,4943.4 C 4457.4,4943.4 4506.09,4918.4 4518.4,4918.4 C 4518.4,4918.4 4518.4,4743.4 4518.4,4743.4 C 4518.4,4743.4 4518.4,4743.4 4518.4,4743.4 "
     id="path32" />
  <path
     stroke="#000000"
     stroke-width="1"
     fill="none"
     transform="matrix(0.05 0 0 0.05 -59 -133)"
     d="M 4518.4,4743.4 C 4518.4,4743.4 4457.4,4943.4 4457.4,4943.4 C 4457.4,4943.4 4506.09,4918.4 4518.4,4918.4 C 4518.4,4918.4 4518.4,4743.4 4518.4,4743.4 C 4518.4,4743.4 4518.4,4743.4 4518.4,4743.4 "
     id="path33" />
  <path
     stroke="none"
     fill="#000000"
     transform="matrix(0.05 0 0 0.05 -59 -133)"
     d="M 5383.4,5269.4 L 5383.4,4773.4 L 5403.4,4773.4 L 5403.4,5269.4 Z "
     id="path34" />
  <path
     stroke="none"
     fill="#000000"
     transform="matrix(0.05 0 0 0.05 -59 -133)"
     d="M 5343.4,4917.4 L 5343.4,5413.4 L 5323.4,5413.4 L 5323.4,4917.4 Z "
     id="path35" />
  <path
     stroke="none"
     fill="#000000"
     transform="matrix(0.05 0 0 0.05 -59 -133)"
     d="M 5383.4,5443.4 C 5383.4,5443.4 5383.4,5268.4 5383.4,5268.4 C 5415.71,5268.4 5444.4,5243.4 5444.4,5243.4 C 5444.4,5243.4 5383.4,5443.4 5383.4,5443.4 C 5383.4,5443.4 5383.4,5443.4 5383.4,5443.4 "
     id="path36" />
  <path
     stroke="#000000"
     stroke-width="1"
     fill="none"
     transform="matrix(0.05 0 0 0.05 -59 -133)"
     d="M 5383.4,5443.4 C 5383.4,5443.4 5383.4,5268.4 5383.4,5268.4 C 5415.71,5268.4 5444.4,5243.4 5444.4,5243.4 C 5444.4,5243.4 5383.4,5443.4 5383.4,5443.4 C 5383.4,5443.4 5383.4,5443.4 5383.4,5443.4 "
     id="path37" />
  <path
     stroke="none"
     fill="#000000"
     transform="matrix(0.05 0 0 0.05 -59 -133)"
     d="M 5343.4,4743.4 C 5343.4,4743.4 5282.4,4943.4 5282.4,4943.4 C 5282.4,4943.4 5331.09,4918.4 5343.4,4918.4 C 5343.4,4918.4 5343.4,4743.4 5343.4,4743.4 C 5343.4,4743.4 5343.4,4743.4 5343.4,4743.4 "
     id="path38" />
  <path
     stroke="#000000"
     stroke-width="1"
     fill="none"
     transform="matrix(0.05 0 0 0.05 -59 -133)"
     d="M 5343.4,4743.4 C 5343.4,4743.4 5282.4,4943.4 5282.4,4943.4 C 5282.4,4943.4 5331.09,4918.4 5343.4,4918.4 C 5343.4,4918.4 5343.4,4743.4 5343.4,4743.4 C 5343.4,4743.4 5343.4,4743.4 5343.4,4743.4 "
     id="path39" />
  <path
     stroke="none"
     fill="#000000"
     transform="matrix(0.05 0 0 0.05 -59 -133)"
     d="M 6203.4,5269.4 L 6203.4,4773.4 L 6223.4,4773.4 L 6223.4,5269.4 Z "
     id="path40" />
  <path
     stroke="none"
     fill="#000000"
     transform="matrix(0.05 0 0 0.05 -59 -133)"
     d="M 6163.4,4917.4 L 6163.4,5413.4 L 6143.4,5413.4 L 6143.4,4917.4 Z "
     id="path41" />
  <path
     stroke="none"
     fill="#000000"
     transform="matrix(0.05 0 0 0.05 -59 -133)"
     d="M 6203.4,5443.4 C 6203.4,5443.4 6203.4,5268.4 6203.4,5268.4 C 6235.71,5268.4 6264.4,5243.4 6264.4,5243.4 C 6264.4,5243.4 6203.4,5443.4 6203.4,5443.4 C 6203.4,5443.4 6203.4,5443.4 6203.4,5443.4 "
     id="path42" />
  <path
     stroke="#000000"
     stroke-width="1"
     fill="none"
     transform="matrix(0.05 0 0 0.05 -59 -133)"
     d="M 6203.4,5443.4 C 6203.4,5443.4 6203.4,5268.4 6203.4,5268.4 C 6235.71,5268.4 6264.4,5243.4 6264.4,5243.4 C 6264.4,5243.4 6203.4,5443.4 6203.4,5443.4 C 6203.4,5443.4 6203.4,5443.4 6203.4,5443.4 "
     id="path43" />
  <path
     stroke="none"
     fill="#000000"
     transform="matrix(0.05 0 0 0.05 -59 -133)"
     d="M 6163.4,4743.4 C 6163.4,4743.4 6102.4,4943.4 6102.4,4943.4 C 6102.4,4943.4 6151.09,4918.4 6163.4,4918.4 C 6163.4,4918.4 6163.4,4743.4 6163.4,4743.4 C 6163.4,4743.4 6163.4,4743.4 6163.4,4743.4 "
     id="path44" />
  <path
     stroke="#000000"
     stroke-width="1"
     fill="none"
     transform="matrix(0.05 0 0 0.05 -59 -133)"
     d="M 6163.4,4743.4 C 6163.4,4743.4 6102.4,4943.4 6102.4,4943.4 C 6102.4,4943.4 6151.09,4918.4 6163.4,4918.4 C 6163.4,4918.4 6163.4,4743.4 6163.4,4743.4 C 6163.4,4743.4 6163.4,4743.4 6163.4,4743.4 "
     id="path45" />
  <path
     stroke="none"
     fill="#000000"
     transform="matrix(0.05 0 0 0.05 -59 -133)"
     d="M 4968.4,4249.4 L 4968.4,3753.4 L 4988.4,3753.4 L 4988.4,4249.4 Z "
     id="path46" />
  <path
     stroke="none"
     fill="#000000"
     transform="matrix(0.05 0 0 0.05 -59 -133)"
     d="M 4928.4,3897.4 L 4928.4,4393.4 L 4908.4,4393.4 L 4908.4,3897.4 Z "
     id="path47" />
  <path
     stroke="none"
     fill="#000000"
     transform="matrix(0.05 0 0 0.05 -59 -133)"
     d="M 4968.4,4423.4 C 4968.4,4423.4 4968.4,4248.4 4968.4,4248.4 C 5000.71,4248.4 5029.4,4223.4 5029.4,4223.4 C 5029.4,4223.4 4968.4,4423.4 4968.4,4423.4 C 4968.4,4423.4 4968.4,4423.4 4968.4,4423.4 "
     id="path48" />
  <path
     stroke="#000000"
     stroke-width="1"
     fill="none"
     transform="matrix(0.05 0 0 0.05 -59 -133)"
     d="M 4968.4,4423.4 C 4968.4,4423.4 4968.4,4248.4 4968.4,4248.4 C 5000.71,4248.4 5029.4,4223.4 5029.4,4223.4 C 5029.4,4223.4 4968.4,4423.4 4968.4,4423.4 C 4968.4,4423.4 4968.4,4423.4 4968.4,4423.4 "
     id="path49" />
  <path
     stroke="none"
     fill="#000000"
     transform="matrix(0.05 0 0 0.05 -59 -133)"
     d="M 4928.4,3723.4 C 4928.4,3723.4 4867.4,3923.4 4867.4,3923.4 C 4867.4,3923.4 4916.09,3898.4 4928.4,3898.4 C 4928.4,3898.4 4928.4,3723.4 4928.4,3723.4 C 4928.4,3723.4 4928.4,3723.4 4928.4,3723.4 "
     id="path50" />
  <path
     stroke="#000000"
     stroke-width="1"
     fill="none"
     transform="matrix(0.05 0 0 0.05 -59 -133)"
     d="M 4928.4,3723.4 C 4928.4,3723.4 4867.4,3923.4 4867.4,3923.4 C 4867.4,3923.4 4916.09,3898.4 4928.4,3898.4 C 4928.4,3898.4 4928.4,3723.4 4928.4,3723.4 C 4928.4,3723.4 4928.4,3723.4 4928.4,3723.4 "
     id="path51" />
  <text
     x="0"
     y="0"
     stroke="none"
     fill="#000000"
     transform="matrix(0.05 0 0 0.05 196.997 30.3337)"
     font-style="normal"
     font-weight="normal"
     font-size="240px"
     font-family="Helvetica"
     id="text51">
Cu(I)</text>
  <path
     stroke="none"
     fill="#000000"
     transform="matrix(0.05 0 0 0.05 -59 -133)"
     d="M 5798.4,4249.4 L 5798.4,3753.4 L 5818.4,3753.4 L 5818.4,4249.4 Z "
     id="path52" />
  <path
     stroke="none"
     fill="#000000"
     transform="matrix(0.05 0 0 0.05 -59 -133)"
     d="M 5758.4,3897.4 L 5758.4,4393.4 L 5738.4,4393.4 L 5738.4,3897.4 Z "
     id="path53" />
  <path
     stroke="none"
     fill="#000000"
     transform="matrix(0.05 0 0 0.05 -59 -133)"
     d="M 5798.4,4423.4 C 5798.4,4423.4 5798.4,4248.4 5798.4,4248.4 C 5830.71,4248.4 5859.4,4223.4 5859.4,4223.4 C 5859.4,4223.4 5798.4,4423.4 5798.4,4423.4 C 5798.4,4423.4 5798.4,4423.4 5798.4,4423.4 "
     id="path54" />
  <path
     stroke="#000000"
     stroke-width="1"
     fill="none"
     transform="matrix(0.05 0 0 0.05 -59 -133)"
     d="M 5798.4,4423.4 C 5798.4,4423.4 5798.4,4248.4 5798.4,4248.4 C 5830.71,4248.4 5859.4,4223.4 5859.4,4223.4 C 5859.4,4223.4 5798.4,4423.4 5798.4,4423.4 C 5798.4,4423.4 5798.4,4423.4 5798.4,4423.4 "
     id="path55" />
  <path
     stroke="none"
     fill="#000000"
     transform="matrix(0.05 0 0 0.05 -59 -133)"
     d="M 5758.4,3723.4 C 5758.4,3723.4 5697.4,3923.4 5697.4,3923.4 C 5697.4,3923.4 5746.09,3898.4 5758.4,3898.4 C 5758.4,3898.4 5758.4,3723.4 5758.4,3723.4 C 5758.4,3723.4 5758.4,3723.4 5758.4,3723.4 "
     id="path56" />
  <path
     stroke="#000000"
     stroke-width="1"
     fill="none"
     transform="matrix(0.05 0 0 0.05 -59 -133)"
     d="M 5758.4,3723.4 C 5758.4,3723.4 5697.4,3923.4 5697.4,3923.4 C 5697.4,3923.4 5746.09,3898.4 5758.4,3898.4 C 5758.4,3898.4 5758.4,3723.4 5758.4,3723.4 C 5758.4,3723.4 5758.4,3723.4 5758.4,3723.4 "
     id="path57" />
  <text
     xml:space="preserve"
     style="font-size:16px;font-family:Helvetica;-inkscape-font-specification:Helvetica;text-align:center;text-anchor:middle;fill:#000000;stroke-width:3.77953;stroke-linejoin:round;stroke-dashoffset:4"
     x="141.99699"
     y="124.27137"
     id="text1"><tspan
       sodipodi:role="line"
       id="tspan1"
       x="141.99699"
       y="124.27137"
       style="font-size:16px;baseline-shift:baseline">t<tspan
   style="font-size:65%;baseline-shift:sub"
   id="tspan2">2g</tspan></tspan></text>
  <text
     xml:space="preserve"
     style="font-size:16px;font-family:Helvetica;-inkscape-font-specification:Helvetica;text-align:center;text-anchor:middle;fill:#000000;stroke-width:3.77953;stroke-linejoin:round;stroke-dashoffset:4"
     x="141.99699"
     y="73.27137"
     id="text1-1"><tspan
       sodipodi:role="line"
       id="tspan1-1"
       x="141.99699"
       y="73.27137"
       style="font-size:16px;baseline-shift:baseline">e<tspan
   style="font-size:65%;baseline-shift:sub"
   id="tspan2-5">g</tspan></tspan></text>
</svg>
